<svg width="1980" height="500" viewBox="0 0 1980 500" fill="none" xmlns="http://www.w3.org/2000/svg">
<path d="M500 400C500 455.228 455.228 500 400 500H100C44.7715 500 8.0543e-07 455.228 0 400V385H90.3105C92.7711 404.731 109.602 420 130 420C150.398 420 167.229 404.731 169.689 385H500V400ZM150.311 255C152.771 274.731 169.602 290 190 290C210.398 290 227.229 274.731 229.689 255H500V375H169.689C167.229 355.269 150.398 340 130 340C109.602 340 92.7711 355.269 90.3105 375H0V255H150.311ZM210.311 125C212.771 144.731 229.602 160 250 160C270.398 160 287.229 144.731 289.689 125H500V245H229.689C227.229 225.269 210.398 210 190 210C169.602 210 152.771 225.269 150.311 245H0V125H210.311ZM400 0C455.228 0 500 44.7715 500 100V115H289.689C287.229 95.2685 270.398 80 250 80C229.602 80 212.771 95.2685 210.311 115H0V100C0 44.7715 44.7715 8.05332e-07 100 0H400Z" fill="url(#paint0_linear_3107_111)"/>
<path d="M1165.4 419.561V99.9403H1235.11L1280.27 275.753L1285.09 297.237H1287.28V99.9403H1342.97V419.561H1272.38L1227.22 243.748L1223.27 225.333H1221.52V419.561H1165.4Z" fill="#181818"/>
<path d="M995.419 419.561V99.9403H1132.65V149.922H1055.48V369.141H1135.28V419.561H995.419ZM1048.47 281.015V231.471H1107.22V281.015H1048.47Z" fill="#181818"/>
<path d="M792.47 419.561V99.9403H878.842C897.257 99.9403 912.602 104.032 924.878 112.217C937.447 120.108 946.946 131.362 953.377 145.976C959.807 160.298 963.022 177.397 963.022 197.273C963.022 210.719 961.269 222.995 957.761 234.102C954.254 245.209 949.139 254.855 942.416 263.039C935.985 270.931 927.655 277.069 917.425 281.453V280.138L918.74 275.315L966.53 419.561H902.957L866.128 295.922H845.521V247.255H868.32C878.842 247.255 886.734 243.748 891.996 236.733C897.257 229.718 899.887 220.218 899.887 208.234V187.189C899.887 174.328 896.965 164.829 891.119 158.691C885.565 152.553 877.966 149.484 868.32 149.484H852.536V419.561H792.47Z" fill="#181818"/>
<path d="M651.736 419.561V149.484H600V99.9403H763.537V149.484H711.801V419.561H651.736Z" fill="#181818"/>
<path d="M1475.12 96.6605C1485.8 97.3501 1495.7 99.6117 1504.81 103.448C1515.92 107.832 1525.42 114.408 1533.31 123.177C1541.2 131.653 1547.19 142.176 1551.28 154.744C1555.67 167.313 1557.86 181.635 1557.86 197.711V321.789C1557.86 343.127 1554.06 361.395 1546.46 376.594C1539.15 391.501 1528.78 403.047 1515.33 411.231C1503.68 418.068 1490.28 421.94 1475.12 422.854V372.909C1478.52 372.28 1481.55 371.171 1484.2 369.579C1488.59 366.657 1491.8 362.856 1493.85 358.18C1496.19 353.503 1497.36 347.949 1497.36 341.519V177.982C1497.36 171.551 1496.19 165.998 1493.85 161.322C1491.8 156.353 1488.59 152.553 1484.2 149.922C1481.55 148.33 1478.52 147.221 1475.12 146.592V96.6605ZM1460.21 146.76C1457.17 147.41 1454.35 148.463 1451.76 149.922C1447.38 152.553 1444.01 156.353 1441.68 161.322C1439.34 165.998 1438.17 171.552 1438.17 177.982V341.519C1438.17 347.949 1439.34 353.503 1441.68 358.18C1444.01 362.857 1447.38 366.657 1451.76 369.579C1454.35 371.038 1457.17 372.091 1460.21 372.741V422.825C1449.52 422.144 1439.69 420.034 1430.71 416.492C1419.61 411.815 1410.11 405.238 1402.22 396.762C1394.32 387.993 1388.33 377.325 1384.24 364.756C1380.15 352.188 1378.1 337.865 1378.1 321.789V197.711C1378.1 176.082 1381.76 157.814 1389.06 142.908C1396.37 128.001 1406.75 116.601 1420.19 108.709C1431.93 101.715 1445.27 97.7119 1460.21 96.6946V146.76Z" fill="#181818"/>
<path d="M1896.02 96.6357C1906.86 97.2933 1916.89 99.5632 1926.12 103.448C1937.23 107.833 1946.73 114.409 1954.62 123.178C1962.51 131.654 1968.5 142.177 1972.6 154.745C1976.98 167.314 1979.17 181.636 1979.17 197.712V321.789C1979.17 343.126 1975.37 361.395 1967.77 376.594C1960.46 391.501 1950.09 403.046 1936.64 411.23C1924.89 418.13 1911.35 422.013 1896.02 422.881V372.981C1899.59 372.368 1902.75 371.235 1905.51 369.579C1909.9 366.656 1913.11 362.856 1915.16 358.18C1917.5 353.503 1918.67 347.949 1918.67 341.519V177.982C1918.67 171.552 1917.5 165.998 1915.16 161.321C1913.11 156.352 1909.9 152.552 1905.51 149.922C1902.75 148.266 1899.59 147.132 1896.02 146.519V96.6357ZM1881.11 146.85C1878.23 147.505 1875.55 148.529 1873.07 149.922C1868.69 152.552 1865.32 156.352 1862.99 161.321C1860.65 165.998 1859.48 171.552 1859.48 177.982V341.519C1859.48 347.949 1860.65 353.503 1862.99 358.18C1865.32 362.856 1868.69 366.656 1873.07 369.579C1875.55 370.972 1878.23 371.995 1881.11 372.65V422.797C1870.58 422.089 1860.88 419.989 1852.03 416.492C1840.92 411.816 1831.42 405.238 1823.53 396.762C1815.64 387.993 1809.64 377.324 1805.55 364.756C1801.46 352.187 1799.41 337.865 1799.41 321.789V197.712C1799.41 176.082 1803.07 157.814 1810.37 142.907C1817.68 128 1828.06 116.601 1841.5 108.709C1853.13 101.779 1866.34 97.7839 1881.11 96.7217V146.85Z" fill="#181818"/>
<path d="M1652 149.483H1651.91V370.018H1652V419.561H1591.85V99.9404H1652V149.483ZM1667 100.004C1682.92 100.442 1696.89 103.196 1708.91 108.271C1722.06 113.532 1732.88 121.424 1741.35 131.946C1750.12 142.469 1756.7 155.329 1761.08 170.528C1765.47 185.727 1767.66 203.265 1767.66 223.141V296.36C1767.66 325.297 1763.28 348.826 1754.51 366.948C1746.03 385.07 1733.9 398.369 1718.12 406.846C1703.73 414.72 1686.69 418.934 1667 419.493V370.018H1669.89C1679.83 370.018 1687.57 367.825 1693.13 363.44C1698.68 358.764 1702.48 352.333 1704.53 344.149C1706.86 335.673 1708.03 325.881 1708.03 314.774V204.727C1708.03 192.158 1706.72 181.782 1704.09 173.598C1701.46 165.414 1697.36 159.422 1691.81 155.622C1686.26 151.53 1678.95 149.483 1669.89 149.483H1667V100.004Z" fill="#181818"/>
<defs>
<linearGradient id="paint0_linear_3107_111" x1="0" y1="0" x2="420.5" y2="500" gradientUnits="userSpaceOnUse">
<stop stop-color="#825ABE"/>
<stop offset="1" stop-color="#AD8DDC"/>
</linearGradient>
</defs>
</svg>
