<svg xmlns="http://www.w3.org/2000/svg" viewBox="0 0 200 210" width="200" height="210" role="img" aria-label="A major seventh (E shape, 5th fret) chord diagram">
  <title>A major seventh (E shape, 5th fret) chord diagram</title>
  <rect x="0" y="0" width="200" height="210" rx="16" fill="#ffffff" />
  <line x1="42" y1="50" x2="42" y2="186" stroke="#c7bda8" stroke-width="1.5" />
  <line x1="70.4" y1="50" x2="70.4" y2="186" stroke="#c7bda8" stroke-width="1.5" />
  <line x1="98.8" y1="50" x2="98.8" y2="186" stroke="#c7bda8" stroke-width="1.5" />
  <line x1="127.2" y1="50" x2="127.2" y2="186" stroke="#c7bda8" stroke-width="1.5" />
  <line x1="155.6" y1="50" x2="155.6" y2="186" stroke="#c7bda8" stroke-width="1.5" />
  <line x1="184" y1="50" x2="184" y2="186" stroke="#c7bda8" stroke-width="1.5" />
  <line x1="42" y1="50" x2="184" y2="50" stroke="#c7bda8" stroke-width="1.5" />
  <line x1="42" y1="84" x2="184" y2="84" stroke="#c7bda8" stroke-width="1.5" />
  <line x1="42" y1="118" x2="184" y2="118" stroke="#c7bda8" stroke-width="1.5" />
  <line x1="42" y1="152" x2="184" y2="152" stroke="#c7bda8" stroke-width="1.5" />
  <line x1="42" y1="186" x2="184" y2="186" stroke="#c7bda8" stroke-width="1.5" />
  <text x="26" y="71" text-anchor="end" font-family="system-ui, sans-serif" font-size="12" fill="#6b6153">5fr</text>
  <path d="M65.4 29 L75.4 39 M75.4 29 L65.4 39" stroke="#6b6153" stroke-width="1.8" stroke-linecap="round" />
  <path d="M179 29 L189 39 M189 29 L179 39" stroke="#6b6153" stroke-width="1.8" stroke-linecap="round" />
  <circle cx="42" cy="67" r="12" fill="#825abe" />
  <text x="42" y="71.5" text-anchor="middle" font-family="system-ui, sans-serif" font-size="13" font-weight="600" fill="#ffffff">1</text>
  <circle cx="98.8" cy="101" r="12" fill="#825abe" />
  <text x="98.8" y="105.5" text-anchor="middle" font-family="system-ui, sans-serif" font-size="13" font-weight="600" fill="#ffffff">3</text>
  <circle cx="127.2" cy="101" r="12" fill="#825abe" />
  <text x="127.2" y="105.5" text-anchor="middle" font-family="system-ui, sans-serif" font-size="13" font-weight="600" fill="#ffffff">4</text>
  <circle cx="155.6" cy="67" r="12" fill="#825abe" />
  <text x="155.6" y="71.5" text-anchor="middle" font-family="system-ui, sans-serif" font-size="13" font-weight="600" fill="#ffffff">2</text>
</svg>
