<svg xmlns="http://www.w3.org/2000/svg" viewBox="0 0 468 214" width="468" height="214" role="img" aria-label="C minor pentatonic scale guitar scale diagram">
  <title>C minor pentatonic scale guitar scale diagram</title>
  <rect x="0" y="0" width="468" height="214" rx="16" fill="#ffffff" />
  <line x1="30" y1="30" x2="444" y2="30" stroke="#c7bda8" stroke-width="1.5" />
  <line x1="30" y1="62" x2="444" y2="62" stroke="#c7bda8" stroke-width="1.5" />
  <line x1="30" y1="94" x2="444" y2="94" stroke="#c7bda8" stroke-width="1.5" />
  <line x1="30" y1="126" x2="444" y2="126" stroke="#c7bda8" stroke-width="1.5" />
  <line x1="30" y1="158" x2="444" y2="158" stroke="#c7bda8" stroke-width="1.5" />
  <line x1="30" y1="190" x2="444" y2="190" stroke="#c7bda8" stroke-width="1.5" />
  <line x1="30" y1="30" x2="30" y2="190" stroke="#3d372c" stroke-width="4" />
  <line x1="76" y1="30" x2="76" y2="190" stroke="#c7bda8" stroke-width="1.5" />
  <line x1="122" y1="30" x2="122" y2="190" stroke="#c7bda8" stroke-width="1.5" />
  <line x1="168" y1="30" x2="168" y2="190" stroke="#c7bda8" stroke-width="1.5" />
  <line x1="214" y1="30" x2="214" y2="190" stroke="#c7bda8" stroke-width="1.5" />
  <line x1="260" y1="30" x2="260" y2="190" stroke="#c7bda8" stroke-width="1.5" />
  <line x1="306" y1="30" x2="306" y2="190" stroke="#c7bda8" stroke-width="1.5" />
  <line x1="352" y1="30" x2="352" y2="190" stroke="#c7bda8" stroke-width="1.5" />
  <line x1="398" y1="30" x2="398" y2="190" stroke="#c7bda8" stroke-width="1.5" />
  <line x1="444" y1="30" x2="444" y2="190" stroke="#c7bda8" stroke-width="1.5" />
  <circle cx="145" cy="62" r="12" fill="#825abe" />
  <circle cx="283" cy="62" r="12" fill="#825abe" />
  <circle cx="145" cy="94" r="12" fill="#825abe" />
  <circle cx="237" cy="94" r="12" fill="#825abe" />
  <circle cx="145" cy="126" r="12" fill="#825abe" />
  <circle cx="237" cy="126" r="12" fill="#825abe" />
</svg>
